<svg version="1.1" xmlns="http://www.w3.org/2000/svg" viewBox="0 0 1479.1054687500002 1241.1408203125" width="1479.1054687500002" height="1241.1408203125">
  <!-- svg-source:excalidraw -->
  
  <defs>
    <style class="style-fonts">
      @font-face {
        font-family: "Virgil";
        src: url("https://excalidraw.com/Virgil.woff2");
      }
      @font-face {
        font-family: "Cascadia";
        src: url("https://excalidraw.com/Cascadia.woff2");
      }
    </style>
    
  </defs>
  <rect x="0" y="0" width="1479.1054687500002" height="1241.1408203125" fill="#ffffff"></rect><g stroke-linecap="round" transform="translate(10.1025390625 74.08125000000001) rotate(0 357.37890625 131.31640625)"><path d="M32 0 M32 0 C286.63 -1.43, 541.63 -0.84, 682.76 0 M32 0 C240.36 1.26, 447.94 1.55, 682.76 0 M682.76 0 C705.31 0.18, 713.47 11.9, 714.76 32 M682.76 0 C705.41 -0.22, 712.97 12.25, 714.76 32 M714.76 32 C715.77 87.07, 715.33 144.2, 714.76 230.63 M714.76 32 C715.74 73.59, 715.75 113.57, 714.76 230.63 M714.76 230.63 C715.03 251.57, 704.09 262.39, 682.76 262.63 M714.76 230.63 C713.48 250.16, 705.38 262.66, 682.76 262.63 M682.76 262.63 C530.32 263.41, 379.66 264.1, 32 262.63 M682.76 262.63 C504.08 261.98, 325.41 261.95, 32 262.63 M32 262.63 C11.71 263.33, 1.39 252.2, 0 230.63 M32 262.63 C8.41 261.96, 0.32 252.81, 0 230.63 M0 230.63 C-2.33 152.11, 0.16 76.75, 0 32 M0 230.63 C-0.64 162.27, 0.54 92.93, 0 32 M0 32 C0.22 9.09, 12.36 -0.84, 32 0 M0 32 C-0.96 9.75, 12.83 -2.02, 32 0" stroke="#1e1e1e" stroke-width="1" fill="none"></path></g><g transform="translate(27.9931640625 94.03046875000001) rotate(0 345.703125 108)"><text x="0" y="0" font-family="Cascadia, Segoe UI Emoji" font-size="20px" fill="#1e1e1e" text-anchor="start" style="white-space: pre;" direction="ltr" dominant-baseline="text-before-edge">#1 | Clear cache and cookies:</text><text x="0" y="24" font-family="Cascadia, Segoe UI Emoji" font-size="20px" fill="#1e1e1e" text-anchor="start" style="white-space: pre;" direction="ltr" dominant-baseline="text-before-edge"></text><text x="0" y="48" font-family="Cascadia, Segoe UI Emoji" font-size="20px" fill="#1e1e1e" text-anchor="start" style="white-space: pre;" direction="ltr" dominant-baseline="text-before-edge">Using Internet Explorer, Edge, Google Chrome, or </text><text x="0" y="72" font-family="Cascadia, Segoe UI Emoji" font-size="20px" fill="#1e1e1e" text-anchor="start" style="white-space: pre;" direction="ltr" dominant-baseline="text-before-edge">Mozilla Firefox, you can quickly clear your cache </text><text x="0" y="96" font-family="Cascadia, Segoe UI Emoji" font-size="20px" fill="#1e1e1e" text-anchor="start" style="white-space: pre;" direction="ltr" dominant-baseline="text-before-edge">with a keyboard shortcut. While using your browser, press: </text><text x="0" y="120" font-family="Cascadia, Segoe UI Emoji" font-size="20px" fill="#1e1e1e" text-anchor="start" style="white-space: pre;" direction="ltr" dominant-baseline="text-before-edge">Ctrl/Cmd + Shift + Delete </text><text x="0" y="144" font-family="Cascadia, Segoe UI Emoji" font-size="20px" fill="#1e1e1e" text-anchor="start" style="white-space: pre;" direction="ltr" dominant-baseline="text-before-edge">simultaneously on the keyboard to open the appropriate </text><text x="0" y="168" font-family="Cascadia, Segoe UI Emoji" font-size="20px" fill="#1e1e1e" text-anchor="start" style="white-space: pre;" direction="ltr" dominant-baseline="text-before-edge">window. Remember to close the browser and restart it after </text><text x="0" y="192" font-family="Cascadia, Segoe UI Emoji" font-size="20px" fill="#1e1e1e" text-anchor="start" style="white-space: pre;" direction="ltr" dominant-baseline="text-before-edge">clearing the cache and cookies.</text></g><g transform="translate(15.3173828125 10) rotate(0 180.46875 16.799999999999997)"><text x="0" y="0" font-family="Cascadia, Segoe UI Emoji" font-size="28px" fill="#1e1e1e" text-anchor="start" style="white-space: pre;" direction="ltr" dominant-baseline="text-before-edge">Troubleshooting steps:</text></g><g stroke-linecap="round" transform="translate(10.1025390625 366.925) rotate(0 410.431640625 72.369140625)"><path d="M32 0 M32 0 C197.63 0.4, 364.71 1.05, 788.86 0 M32 0 C274.32 -0.86, 516.76 -0.91, 788.86 0 M788.86 0 C810.57 -0.22, 820.77 10.22, 820.86 32 M788.86 0 C808.96 0.83, 823.16 8.57, 820.86 32 M820.86 32 C820.14 48.68, 821.31 65.34, 820.86 112.74 M820.86 32 C820.71 59.14, 820.33 84.01, 820.86 112.74 M820.86 112.74 C820.08 132.28, 810.2 146.37, 788.86 144.74 M820.86 112.74 C822.35 134.65, 811.76 146.82, 788.86 144.74 M788.86 144.74 C544.36 146.14, 298.88 146.03, 32 144.74 M788.86 144.74 C518.64 143.84, 249.2 144.55, 32 144.74 M32 144.74 C9.84 145.99, 1.16 133.89, 0 112.74 M32 144.74 C9.59 144.07, 0 131.79, 0 112.74 M0 112.74 C0.48 94.16, 1.98 77.64, 0 32 M0 112.74 C-0.9 81.74, -0.89 51.15, 0 32 M0 32 C-0.58 10.8, 11.52 -1.66, 32 0 M0 32 C-1.83 8.74, 9.68 -0.09, 32 0" stroke="#1e1e1e" stroke-width="1" fill="none"></path></g><g transform="translate(27.9931640625 386.87421875) rotate(0 392.578125 84)"><text x="0" y="0" font-family="Cascadia, Segoe UI Emoji" font-size="20px" fill="#1e1e1e" text-anchor="start" style="white-space: pre;" direction="ltr" dominant-baseline="text-before-edge">#2 | Ensure cookies are enabled:</text><text x="0" y="24" font-family="Cascadia, Segoe UI Emoji" font-size="20px" fill="#1e1e1e" text-anchor="start" style="white-space: pre;" direction="ltr" dominant-baseline="text-before-edge"></text><text x="0" y="48" font-family="Cascadia, Segoe UI Emoji" font-size="20px" fill="#1e1e1e" text-anchor="start" style="white-space: pre;" direction="ltr" dominant-baseline="text-before-edge">Follow the instructions in this post </text><text x="0" y="72" font-family="Cascadia, Segoe UI Emoji" font-size="20px" fill="#1e1e1e" text-anchor="start" style="white-space: pre;" direction="ltr" dominant-baseline="text-before-edge">https://www.wikihow.com/Enable-Cookies-in-Your-Internet-Web-Browser</text><text x="0" y="96" font-family="Cascadia, Segoe UI Emoji" font-size="20px" fill="#1e1e1e" text-anchor="start" style="white-space: pre;" direction="ltr" dominant-baseline="text-before-edge"></text><text x="0" y="120" font-family="Cascadia, Segoe UI Emoji" font-size="20px" fill="#1e1e1e" text-anchor="start" style="white-space: pre;" direction="ltr" dominant-baseline="text-before-edge"></text><text x="0" y="144" font-family="Cascadia, Segoe UI Emoji" font-size="20px" fill="#1e1e1e" text-anchor="start" style="white-space: pre;" direction="ltr" dominant-baseline="text-before-edge"></text></g><g stroke-linecap="round" transform="translate(10 623.4005859375) rotate(0 729.5527343750001 109.5390625)"><path d="M32 0 M32 0 C390.45 4.25, 750.17 4.48, 1427.11 0 M32 0 C478.6 2, 924.69 1.45, 1427.11 0 M1427.11 0 C1449.08 -0.53, 1459.87 11.1, 1459.11 32 M1427.11 0 C1450.37 -1.75, 1459.62 9.57, 1459.11 32 M1459.11 32 C1460.03 88.93, 1459.66 143.75, 1459.11 187.08 M1459.11 32 C1457.49 76, 1458.05 122.14, 1459.11 187.08 M1459.11 187.08 C1458.15 206.67, 1447.3 217.25, 1427.11 219.08 M1459.11 187.08 C1457.27 210.49, 1446.41 219.44, 1427.11 219.08 M1427.11 219.08 C1115.21 221.64, 802.49 220.82, 32 219.08 M1427.11 219.08 C1107.66 221.56, 788.48 222, 32 219.08 M32 219.08 C11.27 217.3, -0.93 207.31, 0 187.08 M32 219.08 C11.67 219.49, 1.05 206.76, 0 187.08 M0 187.08 C-2.54 155.41, 0.14 120.07, 0 32 M0 187.08 C0.55 146.79, 1.31 107.93, 0 32 M0 32 C0.52 9.83, 12.64 0.74, 32 0 M0 32 C-1.54 11.72, 9.18 -0.43, 32 0" stroke="#1e1e1e" stroke-width="1" fill="none"></path></g><g transform="translate(28.10546875 643.4279296875) rotate(0 708.984375 84)"><text x="0" y="0" font-family="Cascadia, Segoe UI Emoji" font-size="20px" fill="#1e1e1e" text-anchor="start" style="white-space: pre;" direction="ltr" dominant-baseline="text-before-edge">#1 | Report environment information:</text><text x="0" y="24" font-family="Cascadia, Segoe UI Emoji" font-size="20px" fill="#1e1e1e" text-anchor="start" style="white-space: pre;" direction="ltr" dominant-baseline="text-before-edge"></text><text x="0" y="48" font-family="Cascadia, Segoe UI Emoji" font-size="20px" fill="#1e1e1e" text-anchor="start" style="white-space: pre;" direction="ltr" dominant-baseline="text-before-edge">Items to record</text><text x="0" y="72" font-family="Cascadia, Segoe UI Emoji" font-size="20px" fill="#1e1e1e" text-anchor="start" style="white-space: pre;" direction="ltr" dominant-baseline="text-before-edge">    * Operating system</text><text x="0" y="96" font-family="Cascadia, Segoe UI Emoji" font-size="20px" fill="#1e1e1e" text-anchor="start" style="white-space: pre;" direction="ltr" dominant-baseline="text-before-edge">    * Web browser &amp; web browser version</text><text x="0" y="120" font-family="Cascadia, Segoe UI Emoji" font-size="20px" fill="#1e1e1e" text-anchor="start" style="white-space: pre;" direction="ltr" dominant-baseline="text-before-edge">        * How to find browser version:</text><text x="0" y="144" font-family="Cascadia, Segoe UI Emoji" font-size="20px" fill="#1e1e1e" text-anchor="start" style="white-space: pre;" direction="ltr" dominant-baseline="text-before-edge">          https://support.biodigital.com/hc/en-us/articles/218323337-How-to-find-information-about-my-computer-or-browser</text></g><g transform="translate(15.3173828125 565.1103515625) rotate(0 172.265625 16.80000000000001)"><text x="0" y="0" font-family="Cascadia, Segoe UI Emoji" font-size="28px" fill="#1e1e1e" text-anchor="start" style="white-space: pre;" direction="ltr" dominant-baseline="text-before-edge">Still having trouble:</text></g><g stroke-linecap="round" transform="translate(10.1025390625 875.1916015625) rotate(0 458.96923828125 159.4248046875)"><path d="M32 0 M32 0 C208.52 0.7, 384.54 0.67, 885.94 0 M32 0 C323.09 -2.83, 613.93 -3.38, 885.94 0 M885.94 0 C906.81 -0.67, 917.31 12.25, 917.94 32 M885.94 0 C907.72 -0.79, 917.4 8.54, 917.94 32 M917.94 32 C919.49 85.77, 919.49 137.04, 917.94 286.85 M917.94 32 C918.84 133.28, 918.65 233.61, 917.94 286.85 M917.94 286.85 C917.35 306.88, 906.18 318.47, 885.94 318.85 M917.94 286.85 C916.85 310.46, 907.01 316.87, 885.94 318.85 M885.94 318.85 C685.71 317.49, 484.82 317.02, 32 318.85 M885.94 318.85 C669.34 321.02, 453.16 320.57, 32 318.85 M32 318.85 C11.14 319.76, -0.61 306.47, 0 286.85 M32 318.85 C9.06 319.85, 0.1 306.87, 0 286.85 M0 286.85 C-1.3 199.57, 0.37 109.97, 0 32 M0 286.85 C-0.27 187.91, -0.67 90.61, 0 32 M0 32 C0.18 8.94, 10.52 -0.32, 32 0 M0 32 C2.26 10.02, 12.64 0.43, 32 0" stroke="#1e1e1e" stroke-width="1" fill="none"></path></g><g transform="translate(27.9931640625 895.1408203125) rotate(0 357.421875 168)"><text x="0" y="0" font-family="Cascadia, Segoe UI Emoji" font-size="20px" fill="#1e1e1e" text-anchor="start" style="white-space: pre;" direction="ltr" dominant-baseline="text-before-edge">#2 | Report replication details:</text><text x="0" y="24" font-family="Cascadia, Segoe UI Emoji" font-size="20px" fill="#1e1e1e" text-anchor="start" style="white-space: pre;" direction="ltr" dominant-baseline="text-before-edge"></text><text x="0" y="48" font-family="Cascadia, Segoe UI Emoji" font-size="20px" fill="#1e1e1e" text-anchor="start" style="white-space: pre;" direction="ltr" dominant-baseline="text-before-edge">Replications details should include exactly what the user did</text><text x="0" y="72" font-family="Cascadia, Segoe UI Emoji" font-size="20px" fill="#1e1e1e" text-anchor="start" style="white-space: pre;" direction="ltr" dominant-baseline="text-before-edge">before they encountered the issue.</text><text x="0" y="96" font-family="Cascadia, Segoe UI Emoji" font-size="20px" fill="#1e1e1e" text-anchor="start" style="white-space: pre;" direction="ltr" dominant-baseline="text-before-edge"></text><text x="0" y="120" font-family="Cascadia, Segoe UI Emoji" font-size="20px" fill="#1e1e1e" text-anchor="start" style="white-space: pre;" direction="ltr" dominant-baseline="text-before-edge">Example:</text><text x="0" y="144" font-family="Cascadia, Segoe UI Emoji" font-size="20px" fill="#1e1e1e" text-anchor="start" style="white-space: pre;" direction="ltr" dominant-baseline="text-before-edge">    * User logs in.</text><text x="0" y="168" font-family="Cascadia, Segoe UI Emoji" font-size="20px" fill="#1e1e1e" text-anchor="start" style="white-space: pre;" direction="ltr" dominant-baseline="text-before-edge">    * NPS modal appears.</text><text x="0" y="192" font-family="Cascadia, Segoe UI Emoji" font-size="20px" fill="#1e1e1e" text-anchor="start" style="white-space: pre;" direction="ltr" dominant-baseline="text-before-edge">    * User answers and submits survey.</text><text x="0" y="216" font-family="Cascadia, Segoe UI Emoji" font-size="20px" fill="#1e1e1e" text-anchor="start" style="white-space: pre;" direction="ltr" dominant-baseline="text-before-edge">    * User reloads the page.</text><text x="0" y="240" font-family="Cascadia, Segoe UI Emoji" font-size="20px" fill="#1e1e1e" text-anchor="start" style="white-space: pre;" direction="ltr" dominant-baseline="text-before-edge">    * NPS survey modal appears again.</text><text x="0" y="264" font-family="Cascadia, Segoe UI Emoji" font-size="20px" fill="#1e1e1e" text-anchor="start" style="white-space: pre;" direction="ltr" dominant-baseline="text-before-edge"></text><text x="0" y="288" font-family="Cascadia, Segoe UI Emoji" font-size="20px" fill="#1e1e1e" text-anchor="start" style="white-space: pre;" direction="ltr" dominant-baseline="text-before-edge"></text><text x="0" y="312" font-family="Cascadia, Segoe UI Emoji" font-size="20px" fill="#1e1e1e" text-anchor="start" style="white-space: pre;" direction="ltr" dominant-baseline="text-before-edge"></text></g></svg>